Patient4_TMGait_0pt6_02_right_09_EMG.mot
version=1
nRows=23
nColumns=33
inDegrees=no
endheader
time	1LAddLong	2LGlutMax	3LGlutMed	4LIliopsoas	5LSemiMemb	6LBicFemLong	7LRecFem	8LVastMed	9LVastLat	10LGasMed	11LTibAnt	12lTibPost	13LPeroneusLong	14LSol	15LExtDigLong	16LFlexDigLong	17RAddLong	18RGlutMax	19RGlutMed	20RIliopsoas	21RSemiMemb	22RBicFemLong	23RRecFem	24RVastMed	25RVastLat	26RGasMed	27RTibAnt	28RTibPost	29RPeroneusLong	30RSol	31RExtDigLong	32RFlexDigLong
11.663	0.006714	-0.16419	-0.045776	-0.018005	-0.001526	0.002441	0.045471	0.004883	0.041809	0.22964	-0.018158	-0.090485	-0.4039	0.47638	-0.011597	0.06073	-0.003815	-0.11551	0.009003	-0.048981	-0.02655	0.007324	-0.012054	-0.077209	-0.014191	-0.011597	-0.96832	-0.008087	-0.43625	-0.09613	0.000153	-0.007019
11.664	0.010986	-0.15015	-0.079651	0.028687	0.003052	0.018616	0.054474	-0.001984	0.040436	0.55725	-0.015717	0.098419	-0.4985	0.52094	-0.03479	0.092468	-0.001526	-0.097504	0.010071	-0.095062	-0.02243	-0.018158	0.012512	-0.10727	-0.00824	-0.014038	-0.54504	-0.007629	-0.3772	-0.066071	-0.000458	0.000458
11.665	0.000305	-0.13428	-0.12009	0.007935	0.01358	0.027618	0.033112	0.003815	0.050354	0.6247	-0.031433	-0.011902	-0.031433	0.47821	0.001373	0.010071	0.008087	-0.11337	0.044403	-0.072479	-0.015106	-0.029144	0.036926	-0.094757	0.010986	0.002594	-0.025635	-0.001221	0.35233	-0.17624	-0.00351	0.002594
11.666	0.001984	-0.11597	-0.15121	0.001678	0.026245	0.034943	0.052643	0.005188	0.042572	0.65979	-0.004425	-0.0383	-0.37674	0.13565	0.009613	-0.017853	0.003815	-0.17014	0.085449	0.032959	-0.013885	-0.031586	0.027008	-0.088654	-0.018158	0.00473	0.31143	-0.002747	0.42801	-0.23148	0.001526	0.003052
11.667	0.008545	-0.13992	-0.1181	0.018158	0.021973	-0.003967	0.022278	0.002136	0.028839	0.91675	0.002441	-0.058289	-0.099792	-0.071106	-0.023651	-0.008392	-0.008545	-0.18539	0.051117	0.033264	0.003662	-0.027008	0.018768	-0.11459	0.009003	0.005493	0.52078	-0.006561	0.44449	-0.20416	0.001373	0.001831
11.668	0.006256	-0.12833	-0.071411	0.023193	0.026703	-0.039978	0.031281	-0.000458	0.027466	0.97656	0.007782	-0.072784	-0.076294	-0.33493	0.009308	-0.023193	-0.014496	-0.10239	-0.041199	-0.018463	-0.009155	-0.012207	0.005188	-0.10086	-0.005188	-0.00061	0.50446	-0.006714	0.25986	-0.16083	-0.001678	0.002747
11.669	0.000458	-0.12314	-0.1236	0.019684	0.020905	-0.034637	0.041351	0.002899	0.020142	1.0559	0.01709	-0.056305	-0.23727	-0.29953	0.036316	-0.055542	-0.022278	-0.065002	-0.036926	0.031433	-0.027924	0.018005	0.04837	-0.10605	0.005493	0.003357	0.30121	-0.006104	0.079041	-0.093842	-0.00412	0.002136
11.67	0.008545	-0.16464	-0.15167	0.011292	0.002136	-0.043793	0.021515	-0.003815	0.032349	0.70282	0.004578	-0.041809	-0.22293	-0.15015	0.049591	-0.093079	-0.034485	-0.1236	0.11337	0.093079	-0.11475	0.032806	0.03067	-0.084991	0.003204	-0.00351	0.015411	-0.007782	0.090179	-0.031128	0.00061	0.000305
11.671	0.016174	-0.16388	-0.19699	-0.002594	0.009003	-0.024719	0.039368	-0.004272	0.018921	-0.15198	-0.01358	-0.16113	0.14908	-0.48416	0.047913	-0.018616	-0.031128	-0.07431	0.16632	0.031738	-0.10666	0.025024	0.029297	-0.13672	0.023499	-0.000916	-0.25116	-0.002441	0.011444	-0.031128	-0.000916	-0.000916
11.672	0.016632	-0.16022	-0.18387	0.000153	-0.018768	-0.044556	0.023499	0.003967	0.029449	-0.48096	-0.029907	-0.032349	0.4892	-0.29877	0.053711	0.13565	-0.001831	-0.051727	0.13825	-0.008545	-0.037079	-0.000458	-0.045929	-0.12573	0.004883	-0.003052	-0.11276	-0.008392	-0.11978	-0.050201	-0.000916	-0.004272
11.673	0.011139	-0.16129	0.02182	-0.006561	-0.006256	-0.052032	0.066376	0.005341	0.041351	-0.82672	-0.018311	0.11612	0.23651	0.09079	0.015259	0.058136	0.002747	-0.08194	0.098724	-0.025635	0.015411	-0.003052	0.004272	-0.12451	0.020447	-0.012817	0.14343	-0.010529	-0.20798	0.019684	-0.000458	-0.003357
11.674	0.00412	-0.14145	0.14297	0.001068	0.010071	-0.041046	0.11154	0.008087	0.033264	-0.86624	0.003357	0.044556	0.008545	0.069275	-0.040131	-0.046387	0.014801	-0.15671	0.10788	-0.092773	0.022736	-0.002594	0.033264	-0.10513	0.014954	-0.011902	0.29129	-0.005798	-0.13199	0.066833	0.001221	-0.001221
11.675	0.010986	-0.19318	0.082245	0.007019	0.016785	-0.021057	0.079956	0.004272	0.025482	-0.98877	0.019073	-0.035706	-0.3093	-0.029755	-0.085144	-0.11917	0.018005	-0.12436	0.21561	-0.06958	-0.018921	0.037537	-0.014801	-0.053558	0.027008	-0.007324	0.34256	-0.00473	-0.29541	0.082703	0.001068	-0.011444
11.676	0.01297	-0.18112	0.02121	-0.001221	0.039673	0.060577	0.083313	0.005035	-0.011139	-0.95856	-0.002747	-0.014496	-0.24277	0.33814	0.027161	-0.038757	0.00824	-0.11902	0.11704	-0.067596	-0.11154	0.10605	-0.03418	-0.084991	0.037384	-0.008087	0.30746	-0.00061	-0.54413	-0.012817	-0.004578	-0.008545
11.677	0.010223	-0.19028	-0.053101	0.014191	0.040436	0.082245	0.08194	0.007782	-0.009766	-0.7962	-0.001831	0.028992	-0.027771	0.17166	0.014648	0.23483	0.032501	-0.11414	0.13473	0.044556	-0.089722	0.068665	-0.033417	-0.078583	0.043793	-0.00946	0.01358	0.000305	-0.46539	-0.093689	-0.00061	-0.00824
11.678	0.007629	-0.15976	-0.048523	0.021515	0.021057	0.047302	0.073547	0.015411	-0.001526	-0.72769	0.002289	0.053864	0.19898	0.10101	-0.073547	0.13672	0.024719	-0.16022	0.080261	0.17181	-0.035553	0.064545	-0.038605	-0.051575	0.038452	0.000305	-0.005188	-0.00351	0.38483	-0.11169	-0.000305	-0.005188
11.679	0.005035	-0.14954	-0.10147	0.007935	0.007019	0.017242	0.075378	0.005798	0.031433	-0.44708	0.015259	0.043793	0.036774	-0.34149	-0.09079	-0.020752	0.014648	-0.11795	0.10681	0.13275	-0.015564	0.049896	-0.031891	-0.046692	0.037842	-0.001068	-0.089569	-0.006256	0.093689	-0.10757	-0.001221	-0.014343
11.68	0.008087	-0.15884	-0.086365	0.014648	-0.002136	-0.008545	0.087738	-0.000153	0.065002	-0.20798	0.012665	0.082703	0.088806	-0.15305	-0.047913	-0.042877	0.005188	-0.13763	0.11963	0.040741	-0.022278	0.039825	-0.018158	-0.052948	0.030823	-0.001526	-0.20416	-0.005493	-0.16937	-0.090942	-0.003052	-0.010376
11.681	0.006409	-0.15427	0.015106	0.007629	-0.010071	-0.023804	0.08606	-0.000763	0.073853	-0.15961	-0.010529	0.07309	0.23285	0.17151	-0.021362	-0.065918	0.021362	-0.14313	0.22598	0.023956	-0.02594	0.020599	0.021515	-0.029144	0.044098	-0.003204	-0.31387	-0.005341	0.26825	-0.070648	0	-0.010223
11.682	0.016632	-0.15243	0.002594	0.009918	-0.001984	-0.025024	0.060272	0.003967	0.072937	-0.047302	-0.010681	0.001221	0.027313	0.4628	0.029602	0.010376	-0.006104	-0.13367	0.28931	0.015869	-0.022583	0.019226	-0.027924	-0.07309	0.022736	0.002289	-0.15564	-0.00351	1.0013	-0.10727	-0.000763	-0.019226
11.683	0.009613	-0.11887	-0.041199	-0.003662	0.025482	0.024719	0.055542	0.005646	0.065002	0.31952	-0.005646	-0.14038	0.03952	0.83786	0.067139	0.03067	-0.011292	-0.11871	0.039215	0.012665	-0.035553	-0.006866	-0.022736	-0.10666	0.016022	0.002289	0.040741	-0.002289	1.2373	-0.019684	0.00351	-0.010681
11.684	0.010834	-0.1181	-0.05722	0.019836	0.030212	0.07843	0.071106	0.001984	0.054169	0.007172	0.008392	0.000305	-0.12329	0.65109	0.002441	-0.01297	0.004272	-0.14023	-0.17502	0.002136	-0.095215	-0.022125	-0.016022	-0.13046	0.014496	-0.001068	0.089111	-0.009918	0.61783	0.036621	0.000916	-0.000153
11.685	0.014038	-0.089111	-0.054169	-0.001984	0.03067	0.13947	0.059204	0.003357	0.060272	-0.74112	0.002289	-0.050659	-0.090485	-0.1387	0.045929	-0.035706	0.013123	-0.11475	-0.12878	-0.07309	-0.1416	-0.060425	-0.007629	-0.12619	-0.017242	0.003204	0.1239	-0.008392	0.43442	0.004272	0.001526	0.000153
